<svg width="48" height="48" viewBox="0 0 48 48" fill="none" xmlns="http://www.w3.org/2000/svg">
<path d="M14.9044 14.0124C13.8484 14.0124 12.7402 14.5024 11.8797 15.2664L11.7831 14.6109C11.7585 14.4458 11.6263 14.3062 11.4332 14.3062H10.5142C10.346 14.3062 10.209 14.4436 10.209 14.6109C10.209 18.7811 10.209 22.9518 10.209 27.122C10.209 27.2897 10.3465 27.4267 10.5142 27.4267H11.715C11.8828 27.4267 12.0197 27.2893 12.0197 27.122V22.8016C12.7815 23.4808 13.772 23.8716 14.8311 23.8716C17.3469 23.8716 18.8344 21.6934 18.8344 18.9826C18.8344 16.4492 17.8619 14.0124 14.9044 14.0124ZM16.1061 21.768C15.6381 22.2295 15.1156 22.3551 14.3288 22.3551C13.6285 22.3551 12.7073 21.9898 12.0193 21.4813V16.3606C12.7359 15.8104 13.6495 15.5127 14.4113 15.5127C16.4003 15.5127 16.9421 17.0767 16.9421 18.8676C16.9535 20.075 16.7313 21.1516 16.1061 21.768Z" fill="#333E47"/>
<path d="M27.6288 23.3386C27.6288 23.5063 27.4914 23.6433 27.3228 23.6433H26.4263C26.2326 23.6433 26.1005 23.5032 26.0754 23.3386L25.9854 22.7283C25.5736 23.0769 25.0678 23.3834 24.5194 23.5967C23.4652 24.0064 22.2494 24.074 21.2194 23.4413C20.4743 22.9842 20.0792 22.0903 20.0792 21.1678C20.0792 20.4544 20.2991 19.747 20.7865 19.2338C21.4367 18.5322 22.3799 18.1875 23.5179 18.1875C24.2055 18.1875 25.1894 18.2683 25.9055 18.5023V17.2742C25.9055 16.0255 25.38 15.4855 23.9938 15.4855C22.9344 15.4855 22.1239 15.6453 20.9964 15.9961C20.8159 16.0023 20.7101 15.8649 20.7101 15.6971V14.9968C20.7101 14.8287 20.8537 14.6662 21.0091 14.617C21.8143 14.2658 22.9555 14.0471 24.1682 14.0067C25.7492 14.0067 27.6284 14.3633 27.6284 16.7952V23.3386H27.6288ZM25.906 21.5454V19.6926C25.3044 19.5279 24.3087 19.4599 23.9236 19.4599C23.3151 19.4599 22.6486 19.6039 22.3004 19.9784C22.0405 20.2533 21.9228 20.6476 21.9228 21.0287C21.9228 21.5217 22.0931 22.0161 22.4918 22.2607C22.9546 22.575 23.6725 22.5368 24.3469 22.345C24.9949 22.1614 25.6039 21.8357 25.906 21.5454Z" fill="#333E47"/>
<path d="M29.325 27.1057C29.325 26.8783 29.325 26.6741 29.325 26.4467C29.325 26.2592 29.4172 26.1297 29.6125 26.1415C29.9778 26.1934 30.4942 26.2452 30.8612 26.1696C31.3403 26.07 31.6836 25.7306 31.8869 25.2652C32.1732 24.6101 32.3628 24.0819 32.4827 23.7355L28.8464 14.7268C28.7849 14.574 28.7669 14.2904 29.0721 14.2904H30.3431C30.5855 14.2904 30.6843 14.4445 30.7387 14.5951L33.3753 21.9125L35.892 14.5951C35.9434 14.4454 36.0466 14.2904 36.2867 14.2904H37.4854C37.7888 14.2904 37.7716 14.5736 37.7111 14.7268L34.1037 24.0165C33.637 25.2529 33.0153 27.2225 31.6147 27.5645C30.9126 27.7481 30.0266 27.6818 29.5063 27.464C29.375 27.3981 29.325 27.2221 29.325 27.1057Z" fill="#333E47"/>
<path d="M41.155 26.7303C39.9257 26.7475 38.4741 27.0227 37.373 27.7955C37.0331 28.0313 37.0928 28.3588 37.4709 28.3153C38.709 28.1665 41.465 27.8324 41.9576 28.462C42.4516 29.0916 41.4114 31.6891 40.9518 32.8509C40.8095 33.1973 41.1103 33.3409 41.4277 33.0774C43.4878 31.3519 44.023 27.7345 43.6015 27.2142C43.3903 26.9538 42.3844 26.7132 41.155 26.7303Z" fill="#F79C34"/>
<path d="M4.50388 28.0475C4.21673 28.087 4.09291 28.451 4.39323 28.7395C9.55266 33.5788 16.3709 35.9484 23.9407 35.9484C29.3399 35.9484 35.6084 34.1869 39.9353 30.8672C40.6506 30.3153 40.0412 29.4881 39.3075 29.8147C34.4563 31.9552 29.1867 32.987 24.3908 32.987C17.2828 32.987 10.4022 31.5029 4.83537 28.1323C4.71419 28.0585 4.59959 28.0343 4.50388 28.0475Z" fill="#F79C34"/>
</svg>
