<svg width="48" height="48" viewBox="0 0 48 48" fill="none" xmlns="http://www.w3.org/2000/svg">
<path d="M41.138 19.7324L43 23.1334L39.086 26.5407L41.138 19.7324Z" fill="#2B8B4B"/>
<path d="M39.8333 19.7324L41.6953 23.1334L37.7813 26.5407L39.8333 19.7324Z" fill="#D9782D"/>
<path d="M14.101 26.3127C14.2847 26.1797 14.405 26.0214 14.462 25.8314L15.0827 23.7921C15.1397 23.6084 15.1143 23.4501 15.0067 23.3234C14.899 23.1967 14.747 23.1334 14.538 23.1334C14.7407 23.1334 14.937 23.0701 15.1207 22.9371C15.3043 22.8104 15.4247 22.6521 15.4753 22.4621L16.096 20.4227C16.153 20.2264 16.134 20.0617 16.0327 19.9287C15.9313 19.7957 15.773 19.7324 15.564 19.7324H7.49533L5.44333 26.4901H13.5183C13.721 26.5091 13.9173 26.4457 14.101 26.3127ZM8.55933 21.0687H12.4163H13.626H13.8793C14.025 21.1004 14.1453 21.1891 14.215 21.3094C14.2403 21.3917 14.253 21.4804 14.253 21.5691C14.253 21.6197 14.2467 21.6641 14.2403 21.7084L14.2277 21.7527L14.177 21.9237C14.0377 22.2214 13.74 22.4367 13.379 22.4747H13.132H8.135L8.55933 21.0687ZM13.3473 24.6724C13.2017 24.9511 12.9167 25.1474 12.5683 25.1917H12.315H7.31166L7.736 23.7984H11.593H12.7837H13.0433C13.2397 23.8427 13.3853 23.9821 13.4297 24.1594C13.436 24.1974 13.4423 24.2417 13.4423 24.2797C13.4423 24.2987 13.4423 24.3241 13.436 24.3431V24.3684L13.3473 24.6724ZM26.0077 19.7577L23.9937 26.4964H22.5433L23.354 23.7921H17.5273L16.7167 26.4964H15.2727L17.2867 19.7577H18.737L17.9263 22.4747H23.753L24.5637 19.7577H26.0077ZM26.432 26.5154H24.9753L27.002 19.7831H28.4587L26.432 26.5154ZM38.5983 19.7704L37.9967 21.7717L36.5843 26.4837H35.134L36.0903 23.2664L32.265 26.4901L29.9533 22.8484L28.864 26.4837H27.4137L28.9717 21.2967L29.4277 19.7641H29.453L30.4283 21.2524L32.5373 24.4761L38.5983 19.7704Z" fill="#6D6E71"/>
<path d="M5 28.3204L5.25967 27.3261H5.551C5.63333 27.3261 5.69667 27.3261 5.72833 27.3387C5.76633 27.3451 5.798 27.3577 5.817 27.3767C5.84867 27.4021 5.86767 27.4274 5.874 27.4654C5.88667 27.5034 5.88667 27.5414 5.874 27.5857C5.86133 27.6364 5.836 27.6807 5.798 27.7187C5.76 27.7567 5.71567 27.7821 5.65867 27.7947C5.722 27.8011 5.76633 27.8327 5.798 27.8771C5.82333 27.9214 5.82967 27.9784 5.81067 28.0417C5.798 28.0797 5.78533 28.1177 5.75367 28.1557C5.72833 28.1937 5.69667 28.2254 5.65867 28.2507C5.62067 28.2761 5.57633 28.2951 5.52567 28.3077C5.475 28.3204 5.399 28.3267 5.285 28.3267H5V28.3204ZM5.21533 28.1874H5.27867C5.342 28.1874 5.39267 28.1874 5.42433 28.1811C5.456 28.1747 5.48767 28.1684 5.50667 28.1557C5.532 28.1431 5.55733 28.1241 5.57633 28.1051C5.59533 28.0797 5.608 28.0607 5.61433 28.0291C5.62067 27.9974 5.62067 27.9721 5.61433 27.9467C5.608 27.9214 5.589 27.9024 5.56367 27.8897C5.54467 27.8834 5.52567 27.8771 5.50667 27.8707C5.48133 27.8707 5.456 27.8644 5.418 27.8644H5.361H5.29767L5.21533 28.1874ZM5.32933 27.7441H5.399C5.48767 27.7441 5.551 27.7314 5.59533 27.7124C5.63967 27.6934 5.665 27.6554 5.67767 27.6047C5.69033 27.5477 5.684 27.5097 5.65867 27.4907C5.627 27.4717 5.57 27.4591 5.475 27.4591H5.40533L5.32933 27.7441ZM6.596 28.3204L6.72267 27.8391H7.28633L7.15967 28.3204H7.34333L7.603 27.3261H7.41933L7.32433 27.6934H6.76067L6.85567 27.3261H6.672L6.41233 28.3204H6.596ZM8.857 28.3204L8.79367 28.0607H8.33767L8.14133 28.3204H7.945L8.76833 27.2817L9.05333 28.3204H8.857ZM8.439 27.9277H8.762L8.705 27.6997C8.705 27.6871 8.69867 27.6681 8.69867 27.6491C8.69867 27.6301 8.69233 27.6111 8.69233 27.5857C8.67967 27.6047 8.667 27.6301 8.65433 27.6491C8.64167 27.6681 8.629 27.6871 8.61633 27.6997L8.439 27.9277ZM9.93367 27.8771L9.81967 28.3204H9.64233L9.902 27.3261H10.1617C10.2377 27.3261 10.2947 27.3324 10.339 27.3387C10.377 27.3451 10.4087 27.3641 10.434 27.3831C10.4657 27.4084 10.4847 27.4401 10.491 27.4781C10.4973 27.5161 10.4973 27.5604 10.4847 27.6047C10.4657 27.6871 10.4277 27.7441 10.3707 27.7947C10.3137 27.8391 10.244 27.8707 10.1553 27.8771L10.434 28.3331H10.225L9.959 27.8897H9.93367V27.8771ZM9.978 27.7504H10.0097C10.1047 27.7504 10.1743 27.7377 10.2123 27.7187C10.2503 27.6997 10.2757 27.6617 10.2883 27.6111C10.301 27.5541 10.2947 27.5161 10.2693 27.4971C10.2377 27.4717 10.1807 27.4654 10.0857 27.4654H10.054L9.978 27.7504ZM11.783 28.3204L11.7197 28.0607H11.2637L11.061 28.3204H10.8647L11.688 27.2817L11.973 28.3204H11.783ZM11.3713 27.9277H11.6943L11.6373 27.6997C11.631 27.6871 11.631 27.6681 11.631 27.6491C11.631 27.6301 11.6247 27.6111 11.6247 27.5857C11.612 27.6047 11.5993 27.6301 11.593 27.6491C11.5803 27.6681 11.5677 27.6871 11.555 27.6997L11.3713 27.9277ZM13.3853 27.4591L13.4233 27.3197H12.6253L12.5873 27.4591H12.8913L12.6697 28.3204H12.8533L13.075 27.4591H13.3853ZM14.9497 28.3204L15.2093 27.3261H15.0193L14.7597 28.3204H14.9497ZM15.8743 28.3204L16.058 27.6301C16.0707 27.6491 16.0833 27.6681 16.096 27.6871C16.1087 27.7061 16.1277 27.7251 16.1403 27.7377L16.723 28.3584L16.9953 27.3261H16.8243L16.647 28.0164C16.628 27.9911 16.6153 27.9721 16.6027 27.9467C16.59 27.9277 16.571 27.9087 16.5583 27.8897L15.9883 27.2817L15.716 28.3204H15.8743ZM18.376 27.4591L18.4077 27.3197H17.616L17.578 27.4591H17.882L17.6603 28.3204H17.8503L18.072 27.4591H18.376ZM19.421 28.3204L19.459 28.1747H19.003L19.0853 27.8517H19.5413L19.5793 27.7124H19.1233L19.1867 27.4591H19.6427L19.6807 27.3197H19.0347L18.775 28.3141H19.421V28.3204ZM20.409 27.8771L20.295 28.3204H20.1177L20.3773 27.3261H20.637C20.713 27.3261 20.77 27.3324 20.808 27.3387C20.846 27.3451 20.8777 27.3641 20.903 27.3831C20.9347 27.4084 20.9537 27.4401 20.96 27.4781C20.9663 27.5161 20.9663 27.5604 20.9537 27.6047C20.9347 27.6871 20.8967 27.7441 20.8397 27.7947C20.7827 27.8391 20.713 27.8707 20.6243 27.8771L20.903 28.3331H20.694L20.428 27.8897H20.409V27.8771ZM20.4533 27.7504H20.485C20.5863 27.7504 20.6497 27.7377 20.6877 27.7187C20.7257 27.6997 20.751 27.6617 20.7637 27.6111C20.7763 27.5541 20.77 27.5161 20.7447 27.4971C20.713 27.4717 20.656 27.4654 20.561 27.4654H20.5293L20.4533 27.7504ZM21.6883 28.3204L21.8087 27.8517H22.2647L22.3027 27.7124H21.8467L21.91 27.4654H22.366L22.404 27.3261H21.7643L21.5047 28.3204H21.6883ZM23.5313 28.3204L23.468 28.0607H23.012L22.8093 28.3204H22.613L23.4363 27.2817L23.7213 28.3204H23.5313ZM23.1133 27.9277H23.4363L23.3793 27.6997C23.373 27.6871 23.373 27.6681 23.373 27.6491C23.373 27.6301 23.3667 27.6111 23.3667 27.5857C23.354 27.6047 23.3413 27.6301 23.3287 27.6491C23.316 27.6681 23.3033 27.6871 23.297 27.6997L23.1133 27.9277ZM25.463 27.4021C25.4123 27.3704 25.3617 27.3451 25.3047 27.3261C25.2477 27.3071 25.1843 27.3007 25.1147 27.3007C25.0323 27.3007 24.95 27.3134 24.8677 27.3387C24.7853 27.3641 24.7093 27.4021 24.646 27.4527C24.5763 27.5034 24.5193 27.5604 24.4687 27.6237C24.4243 27.6871 24.3863 27.7567 24.3673 27.8264C24.3483 27.9024 24.3483 27.9657 24.361 28.0354C24.3737 28.0987 24.4053 28.1557 24.4433 28.2064C24.4877 28.2571 24.5447 28.2887 24.6143 28.3141C24.684 28.3394 24.76 28.3521 24.8487 28.3521C24.9183 28.3521 24.9817 28.3457 25.045 28.3267C25.1083 28.3141 25.1717 28.2887 25.2287 28.2571L25.273 28.0734C25.2033 28.1177 25.14 28.1494 25.0703 28.1684C25.0007 28.1874 24.9373 28.2001 24.8677 28.2001C24.7537 28.2001 24.665 28.1621 24.608 28.0924C24.551 28.0227 24.532 27.9341 24.5637 27.8264C24.5953 27.7124 24.6587 27.6237 24.7537 27.5541C24.8487 27.4844 24.9627 27.4464 25.0893 27.4464C25.1527 27.4464 25.216 27.4591 25.2667 27.4781C25.3173 27.4971 25.368 27.5287 25.4123 27.5667L25.463 27.4021ZM26.5713 28.3204L26.6093 28.1747H26.1533L26.2357 27.8517H26.6917L26.7297 27.7124H26.2737L26.337 27.4591H26.793L26.831 27.3197H26.1913L25.9317 28.3141H26.5713V28.3204ZM28.427 28.3204L28.5473 27.8517H29.0033L29.0413 27.7124H28.5853L28.6487 27.4654H29.1047L29.1427 27.3261H28.503L28.2433 28.3204H28.427ZM30.8717 27.8264C30.8527 27.8961 30.821 27.9657 30.7703 28.0291C30.726 28.0924 30.6627 28.1494 30.593 28.2001C30.5233 28.2507 30.4473 28.2887 30.365 28.3141C30.2827 28.3394 30.2003 28.3521 30.1243 28.3521C30.042 28.3521 29.966 28.3394 29.8963 28.3141C29.8267 28.2887 29.7697 28.2507 29.7253 28.2001C29.681 28.1494 29.6493 28.0924 29.6367 28.0354C29.624 27.9721 29.624 27.9024 29.643 27.8327C29.662 27.7631 29.6937 27.6934 29.738 27.6301C29.7823 27.5667 29.8457 27.5097 29.9153 27.4591C29.985 27.4084 30.061 27.3704 30.1433 27.3451C30.2257 27.3197 30.308 27.3071 30.3903 27.3071C30.4727 27.3071 30.5487 27.3197 30.6183 27.3451C30.688 27.3704 30.7387 27.4084 30.7893 27.4591C30.8337 27.5097 30.8653 27.5667 30.878 27.6301C30.8907 27.6871 30.8907 27.7567 30.8717 27.8264ZM30.6753 27.8264C30.688 27.7757 30.688 27.7251 30.6817 27.6807C30.6753 27.6364 30.6563 27.5921 30.6247 27.5604C30.593 27.5224 30.555 27.4971 30.5107 27.4781C30.4663 27.4591 30.4157 27.4527 30.3587 27.4527C30.3017 27.4527 30.2447 27.4591 30.194 27.4781C30.137 27.4971 30.0863 27.5224 30.0357 27.5604C29.985 27.5921 29.947 27.6364 29.9153 27.6807C29.8837 27.7251 29.8583 27.7757 29.8457 27.8264C29.833 27.8771 29.833 27.9277 29.8393 27.9721C29.8457 28.0164 29.871 28.0607 29.8963 28.0924C29.928 28.1304 29.966 28.1557 30.0103 28.1747C30.0547 28.1937 30.1053 28.2001 30.1623 28.2001C30.2193 28.2001 30.2763 28.1874 30.327 28.1747C30.384 28.1557 30.4347 28.1304 30.4853 28.0924C30.536 28.0544 30.574 28.0164 30.612 27.9721C30.6373 27.9214 30.6627 27.8771 30.6753 27.8264ZM31.733 27.8771L31.619 28.3204H31.4417L31.7013 27.3261H31.961C32.037 27.3261 32.094 27.3324 32.1383 27.3387C32.1763 27.3451 32.208 27.3641 32.2333 27.3831C32.265 27.4084 32.284 27.4401 32.2903 27.4781C32.2967 27.5161 32.2967 27.5604 32.284 27.6047C32.265 27.6871 32.227 27.7441 32.17 27.7947C32.113 27.8391 32.0433 27.8707 31.9547 27.8771L32.2333 28.3331H32.0243L31.7583 27.8897H31.733V27.8771ZM31.7773 27.7504H31.809C31.9103 27.7504 31.9737 27.7377 32.0117 27.7187C32.0497 27.6997 32.075 27.6617 32.0877 27.6111C32.1003 27.5541 32.094 27.5161 32.0687 27.4971C32.037 27.4717 31.98 27.4654 31.885 27.4654H31.8533L31.7773 27.7504ZM34.8553 28.3204H35.0263L35.02 27.2817L34.526 27.9087L34.507 27.9341C34.469 27.9784 34.4437 28.0164 34.4247 28.0417C34.4183 28.0101 34.412 27.9784 34.4057 27.9531C34.3993 27.9277 34.3993 27.9151 34.393 27.9024L34.222 27.2754L33.6773 28.3141H33.8483L34.1017 27.8201C34.1143 27.7947 34.127 27.7694 34.1333 27.7504C34.1397 27.7251 34.1523 27.7061 34.1587 27.6871C34.1587 27.7061 34.165 27.7314 34.165 27.7504C34.1713 27.7694 34.1713 27.7947 34.1777 27.8137L34.336 28.3584L34.773 27.8264C34.792 27.8011 34.811 27.7821 34.8237 27.7567C34.8363 27.7314 34.849 27.7124 34.8617 27.6871C34.8617 27.7061 34.8553 27.7314 34.8553 27.7567C34.849 27.7947 34.849 27.8137 34.849 27.8201V28.3204H34.8553ZM36.9707 27.8264C36.9517 27.8961 36.92 27.9657 36.8757 28.0291C36.8313 28.0924 36.768 28.1494 36.6983 28.2001C36.6287 28.2507 36.5527 28.2887 36.4703 28.3141C36.388 28.3394 36.3057 28.3521 36.2233 28.3521C36.141 28.3521 36.065 28.3394 35.9953 28.3141C35.9257 28.2887 35.8687 28.2507 35.8243 28.2001C35.78 28.1494 35.7483 28.0924 35.7357 28.0354C35.723 27.9721 35.723 27.9024 35.742 27.8327C35.761 27.7631 35.7927 27.6934 35.837 27.6301C35.8813 27.5667 35.9447 27.5097 36.0143 27.4591C36.084 27.4084 36.16 27.3704 36.2423 27.3451C36.3247 27.3197 36.407 27.3071 36.4893 27.3071C36.5717 27.3071 36.6477 27.3197 36.711 27.3451C36.7807 27.3704 36.8377 27.4084 36.882 27.4591C36.9263 27.5097 36.958 27.5667 36.9707 27.6301C36.9897 27.6871 36.9897 27.7567 36.9707 27.8264ZM36.7743 27.8264C36.787 27.7757 36.787 27.7251 36.7807 27.6807C36.7743 27.6364 36.749 27.5921 36.7237 27.5604C36.692 27.5224 36.654 27.4971 36.6097 27.4781C36.5653 27.4591 36.5147 27.4527 36.4577 27.4527C36.4007 27.4527 36.3437 27.4591 36.2867 27.4781C36.2297 27.4971 36.179 27.5224 36.1283 27.5604C36.0777 27.5921 36.0397 27.6364 36.008 27.6807C35.9763 27.7251 35.951 27.7757 35.9383 27.8264C35.9257 27.8771 35.9257 27.9277 35.932 27.9721C35.9447 28.0164 35.9637 28.0607 35.989 28.0924C36.0207 28.1304 36.0587 28.1557 36.103 28.1747C36.1473 28.1937 36.198 28.2001 36.255 28.2001C36.312 28.2001 36.369 28.1874 36.426 28.1747C36.483 28.1557 36.5337 28.1304 36.5843 28.0924C36.635 28.0544 36.673 28.0164 36.7047 27.9721C36.7363 27.9214 36.7617 27.8771 36.7743 27.8264ZM37.7117 28.3204L37.889 27.6301C37.9017 27.6491 37.9143 27.6681 37.927 27.6871C37.9397 27.7061 37.9523 27.7251 37.9713 27.7377L38.554 28.3584L38.8263 27.3261H38.6553L38.478 28.0164C38.459 27.9911 38.4463 27.9721 38.4273 27.9467C38.4147 27.9277 38.3957 27.9087 38.383 27.8897L37.813 27.2817L37.5407 28.3204H37.7117ZM39.9537 28.3204L39.9917 28.1747H39.5357L39.618 27.8517H40.074L40.112 27.7124H39.656L39.7193 27.4591H40.1753L40.2133 27.3197H39.5737L39.314 28.3141H39.9537V28.3204ZM41.0873 28.3204L41.2077 27.8644L41.746 27.3261H41.556L41.2203 27.6617C41.2077 27.6744 41.195 27.6871 41.1823 27.6997C41.1697 27.7124 41.157 27.7314 41.1443 27.7441C41.138 27.7251 41.138 27.7124 41.1317 27.6997C41.1253 27.6871 41.119 27.6744 41.119 27.6681L40.967 27.3324H40.7707L41.0177 27.8707L40.8973 28.3267H41.0873V28.3204Z" fill="#6D6E71"/>
</svg>
