<svg width="48" height="48" viewBox="0 0 48 48" fill="none" xmlns="http://www.w3.org/2000/svg">
<path d="M24.02 43C23.8024 43 23.6047 42.9407 23.4069 42.8418L7.78287 34.0409C7.38732 33.8234 7.14999 33.4278 7.14999 32.9729V5.89787C7.14999 5.22544 7.68398 4.67168 8.37618 4.67168H39.644C40.3165 4.67168 40.8702 5.20566 40.8702 5.89787V32.9729C40.8702 33.408 40.6131 33.8234 40.2373 34.0409L24.6133 42.8418C24.4155 42.9604 24.2375 43 24.02 43ZM9.62215 32.2807L24.02 40.3894L38.4376 32.2807V7.12406H9.62215V32.2807Z" fill="#200B4F"/>
<path d="M24.02 30.7579C23.8024 30.7579 23.6047 30.6985 23.4069 30.5997L18.4626 27.7913C18.067 27.5737 17.8297 27.1782 17.8297 26.7233V21.5812H20.2821V25.9916L24.02 28.088L28.371 25.6356L29.5774 27.7715L24.6331 30.5799C24.4155 30.6986 24.2375 30.7579 24.02 30.7579Z" fill="#200B4F"/>
<path d="M24.02 36.8888C23.8024 36.8888 23.6047 36.8295 23.4069 36.7306L13.1029 30.9359C12.7074 30.7183 12.4701 30.303 12.4701 29.8679V16.5974C12.4701 15.9249 13.004 15.3712 13.6963 15.3712H28.8061V17.8236H14.9224V29.1757L23.9804 34.2782L33.0384 29.1757V23.8556H35.5303V29.8481C35.5303 30.2832 35.2732 30.6986 34.8975 30.9161L24.5935 36.7108C24.4155 36.8493 24.2375 36.8888 24.02 36.8888Z" fill="#200B4F"/>
<path d="M35.5304 19.1684H33.078V12.4837H16.8211V10.0313H34.2844C34.9568 10.0313 35.5106 10.5653 35.5106 11.2575V19.1684H35.5304Z" fill="#200B4F"/>
</svg>
