<svg width="48" height="48" viewBox="0 0 48 48" fill="none" xmlns="http://www.w3.org/2000/svg">
<g clip-path="url(#clip0_2_2)">
<path d="M42.8717 20.8299C42.5268 19.8437 41.5867 19.1355 40.4827 19.1355H40.4596C39.7419 19.1355 39.095 19.4342 38.6345 19.9138C38.1734 19.4342 37.5265 19.1355 36.8095 19.1355H36.7864C36.1554 19.1355 35.5787 19.3666 35.1358 19.7489V19.5545C35.1206 19.3608 34.9613 19.2087 34.7646 19.2087H33.071C32.8639 19.2087 32.6967 19.376 32.6967 19.5838V28.7807C32.6967 28.9886 32.864 29.1558 33.071 29.1558H34.7646C34.9534 29.1558 35.1087 29.0148 35.1335 28.8324L35.1328 22.2301C35.1328 22.207 35.1335 22.1856 35.136 22.164C35.163 21.8693 35.3789 21.6271 35.7199 21.5967H36.0321C36.1747 21.6095 36.2951 21.6597 36.3898 21.7353C36.5372 21.8524 36.6192 22.0325 36.6192 22.2301L36.6256 28.7999C36.6256 29.0078 36.7937 29.1759 36.9999 29.1759H38.6935C38.8934 29.1759 39.056 29.0166 39.0656 28.8182L39.0649 22.2214C39.0641 22.0047 39.1644 21.8088 39.3404 21.6925C39.4272 21.6367 39.5316 21.5993 39.6519 21.5881H39.9641C40.3306 21.62 40.552 21.898 40.5513 22.2214L40.5576 28.7824C40.5576 28.9903 40.7258 29.1575 40.932 29.1575H42.6256C42.8319 29.1575 43 28.9902 43 28.7824V21.7261C43 21.2448 42.9459 21.0401 42.8717 20.8299ZM31.4063 19.2327H30.4376V17.6586C30.4376 17.4698 30.2847 17.3169 30.0959 17.3169C30.0736 17.3169 30.0522 17.3201 30.0313 17.324C28.9575 17.6187 29.1725 19.1061 27.2122 19.2327H27.0217C26.993 19.2327 26.966 19.2366 26.9397 19.2422H26.9381L26.9397 19.243C26.7723 19.2804 26.6465 19.4286 26.6465 19.607V21.3008C26.6465 21.507 26.8146 21.6752 27.0216 21.6752H28.0436L28.0421 28.8567C28.0421 29.0614 28.2078 29.2271 28.4125 29.2271H30.087C30.291 29.2271 30.4566 29.0614 30.4566 28.8567L30.4574 21.6752H31.4062C31.6124 21.6752 31.7806 21.507 31.7806 21.3008V19.6072C31.7809 19.4008 31.6128 19.2327 31.4063 19.2327Z" fill="#54C1F0"/>
<path d="M25.313 19.2327H23.6194C23.4131 19.2327 23.2458 19.4008 23.2458 19.607V23.109C23.2418 23.3257 23.0666 23.4993 22.8491 23.4993H22.1401C21.9203 23.4993 21.7426 23.3225 21.7426 23.1026L21.7363 19.607C21.7363 19.4008 21.5682 19.2327 21.3619 19.2327H19.6682C19.461 19.2327 19.2938 19.4008 19.2938 19.607V23.4452C19.2938 24.903 20.3333 25.9426 21.7919 25.9426C21.7919 25.9426 22.8864 25.9426 22.9199 25.9489C23.1175 25.9713 23.2712 26.137 23.2712 26.3409C23.2712 26.5425 23.1205 26.7074 22.9254 26.732C22.9158 26.7336 22.907 26.736 22.8966 26.7377L20.4199 26.7465C20.2128 26.7465 20.0456 26.9146 20.0456 27.1209V28.8137C20.0456 29.0209 20.2129 29.1881 20.4199 29.1881H23.1889C24.6483 29.1881 25.687 28.1493 25.687 26.6907V19.6072C25.6874 19.4008 25.5202 19.2327 25.313 19.2327ZM9.06904 19.2324H5.36723C5.16416 19.2324 5 19.3971 5 19.5996V21.259C5 21.2622 5.00076 21.2654 5.00076 21.2686C5.00076 21.2765 5 21.2845 5 21.2917V28.802C5 29.006 5.15291 29.1724 5.34261 29.1771H7.06811C7.27438 29.1771 7.44249 29.0098 7.44249 28.8027L7.44887 26.2289H9.06919C10.425 26.2289 11.3699 25.2882 11.3699 23.9267V21.5377C11.3697 20.1763 10.4249 19.2324 9.06904 19.2324ZM8.92008 23.381C8.92008 23.6001 8.74239 23.7785 8.52336 23.7785L7.44872 23.7793V21.685H8.52336C8.74239 21.685 8.92008 21.8618 8.92008 22.0818V23.381ZM15.6778 19.2419H13.3279C13.12 19.2419 12.9519 19.3997 12.9519 19.5932V20.252C12.9519 20.2559 12.9526 20.2608 12.9526 20.2647C12.9526 20.2695 12.9519 20.2743 12.9519 20.279V21.1816C12.9519 21.3864 13.1303 21.5536 13.3501 21.5536H15.5879C15.7646 21.5814 15.9049 21.7104 15.9248 21.912V22.1302C15.9049 22.3222 15.7663 22.4624 15.5974 22.4783H14.4894C13.0156 22.4783 11.9657 23.4574 11.9657 24.8323V26.8015C11.9657 28.1684 12.8683 29.1411 14.3316 29.1411H17.4026C17.9539 29.1411 18.4008 28.7237 18.4008 28.2098V21.784C18.4008 20.2258 17.5978 19.2419 15.6778 19.2419ZM15.9472 26.5764C15.9472 26.598 15.944 26.6186 15.9408 26.6386C15.9368 26.6573 15.9315 26.6757 15.9248 26.6936C15.8723 26.8418 15.7241 26.9492 15.548 26.9492H14.8431C14.6233 26.9492 14.4439 26.7819 14.4439 26.5764V26.2569C14.4439 26.2529 14.4432 26.249 14.4432 26.2449L14.4439 25.3949V25.1289L14.4447 25.1265C14.4454 24.9217 14.6231 24.756 14.8429 24.756H15.5479C15.7686 24.756 15.947 24.9225 15.947 25.1289V26.5764H15.9472Z" fill="#233266"/>
</g>
<defs>
<clipPath id="clip0_2_2">
<rect width="38" height="11.9168" fill="white" transform="translate(5 17.3136)"/>
</clipPath>
</defs>
</svg>
